<svg xmlns="http://www.w3.org/2000/svg" viewBox="0 0 577.32 79.28"><defs><style>.cls-1{fill:#6BB3BC;}.cls-2{fill:#231f20;}</style></defs><title>logo</title><g id="Layer_2" data-name="Layer 2"><g id="Layer_1-2" data-name="Layer 1"><g id="Group_3451" data-name="Group 3451"><polygon id="Rectangle_1374" data-name="Rectangle 1374" class="cls-1" points="462.68 0 476.5 0 476.5 12.71 460.46 15.35 462.68 0"/></g><path class="cls-2" d="M13.11,32.32v33c0,6.4,3.76,10.06,10.06,10.06a18.41,18.41,0,0,0,7.52-1.63v3.66a21.38,21.38,0,0,1-8.84,1.83C13.62,79.27,8.74,74,8.74,65V32.32H0V28.46H9.25V10.68h4.37V28.46c0,5-.49.42-4,.42v-.42H31.41v3.86Z"/><path class="cls-2" d="M83.12,46.75v31.5H78.75V46.75c0-9.76-5.59-15.45-15-15.45-10.57,0-16.87,7.21-16.87,19.51V78.25H42.47V0h4.37V45.22H47C47,34,53.64,27.44,64.72,27.44,76.31,27.44,83.12,34.66,83.12,46.75Z"/><path class="cls-2" d="M141,54.47H101.6c.31,13.21,6.81,20.93,17.48,20.93,9.55,0,16.06-5.39,17.48-14.43H141c-1.42,11.48-9.55,18.29-22,18.29-13.82,0-22-9.55-22-25.81s8.13-26,22-26,22,9.65,22,26Zm-39.32-3.86h34.75c-.81-12.19-7.21-19.31-17.38-19.31S102.52,38.42,101.71,50.61Z"/><path class="cls-2" d="M227.5,52.74c0,16.66-7.62,26.52-20.43,26.52-11.38,0-18.19-6.91-18.19-18.6h-.2V78.24H175.27V0h13.41V44.71h.2c0-11.58,6.81-18.49,18.19-18.49C219.88,26.22,227.5,36.08,227.5,52.74Zm-13.72,0c0-10-4.78-16-12.91-16S188,43.29,188,52.74s4.78,15.85,12.91,15.85S213.78,62.7,213.78,52.74Z"/><path class="cls-2" d="M238.06,0h13.41V78.25H238.06Z"/><path class="cls-2" d="M311.32,27.24v51H297.91v-18h-.2c0,11.89-5.89,19-15.95,19-11,0-17.48-7.83-17.48-20.93V27.24h13.41V57.72c0,6.91,3.56,10.87,9.55,10.87,6.71,0,10.67-5.08,10.67-13.82V27.24Z"/><path class="cls-2" d="M372,54.27H334.79c.51,9.35,5,14.84,12.19,14.84,6.3,0,10.67-3.45,12-9h13c-1.83,12.09-11.18,19.21-25,19.21-15.85,0-25.2-9.86-25.2-26.52s9.35-26.52,25.2-26.52c15.65,0,25,9.76,25,26.52ZM334.89,49.7h24c-.81-8.54-5.18-13.41-11.89-13.41S335.8,41.16,334.89,49.7Z"/><path class="cls-2" d="M456.82,78.25H440.36L418,52.14h-.2V78.25H404.39V0H417.8V51.22h.2l20.63-24h15.85L432.84,51.52Z"/><rect class="cls-2" x="463.01" y="27.24" width="13.41" height="51.01"/><path class="cls-2" d="M506,36.49V61.08c0,4.78,3.05,7.52,8.13,7.52A14.61,14.61,0,0,0,520.93,67v10a27.72,27.72,0,0,1-11.08,2.34c-10.87,0-17.27-6.1-17.27-16.46V36.49h-7.32V27.24h8.13V10.17h12.49V27.24c0,6.5-3.95-.35-12.08,1.17V27.24h28v9.25Z"/><path class="cls-2" d="M577.32,54.27H540.13c.51,9.35,5,14.84,12.19,14.84,6.3,0,10.67-3.45,12-9h13c-1.83,12.09-11.18,19.21-25,19.21-15.85,0-25.2-9.86-25.2-26.52s9.35-26.52,25.2-26.52c15.65,0,25,9.76,25,26.52ZM540.23,49.7h24c-.81-8.54-5.18-13.41-11.89-13.41S541.14,41.16,540.23,49.7Z"/></g></g></svg>